<svg id="Capa_1" data-name="Capa 1" xmlns="http://www.w3.org/2000/svg" viewBox="0 0 665.59 975.31"><defs><style>.cls-1{fill:#e30613;}.cls-2{fill:#020304;}.cls-3{fill:#fff;}</style></defs><path class="cls-1" d="M1180,292.59c0-130.35-105.67-236-236-236s-236,105.67-236,236a234.93,234.93,0,0,0,31,117l96.84,216.61L914.85,803c12.21,27.31,47.55,27.31,59.76,0l79.06-176.85,98.36-220a17.36,17.36,0,0,0,1.33-4.59A235,235,0,0,0,1180,292.59Z" transform="translate(-612.64 -56.57)"/><path class="cls-2" d="M1021.19,709.29,974.28,814.23c-12.21,27.31-47.55,27.31-59.75,0L867.71,709.52c-146.3,17.19-255.07,81.82-255.07,158.94,0,90.25,149,163.42,332.8,163.42s332.79-73.17,332.79-163.42C1278.23,791,1168.49,726.13,1021.19,709.29Z" transform="translate(-612.64 -56.57)"/><path class="cls-3" d="M998.34,759.87l-24.06,53.81c-12.21,27.31-47.55,27.31-59.75,0l-24.11-53.92C761.15,769.18,663.49,812.25,663.49,864c0,58.61,125.43,106.12,280.16,106.12S1223.81,922.57,1223.81,864C1223.81,812.44,1126.88,769.5,998.34,759.87Z" transform="translate(-612.64 -56.57)"/><circle class="cls-3" cx="330.34" cy="226.16" r="102.36"/><path class="cls-2" d="M991.05,785.72,972.58,827c-12.21,27.31-47.54,27.31-59.75,0l-18.41-41.17c-99.15,8.25-173.2,40.89-173.2,79.9,0,45.25,99.59,81.93,222.43,81.93s222.43-36.68,222.43-81.93C1166.08,826.52,1091.12,793.72,991.05,785.72Z" transform="translate(-612.64 -56.57)"/></svg>