<svg id="Capa_1" data-name="Capa 1" xmlns="http://www.w3.org/2000/svg" viewBox="0 0 1039.06 1080"><defs><style>.cls-1{fill:#3aaa35;}.cls-2{fill:#fff;}</style></defs><path class="cls-1" d="M939.69,0C652.76,0,420.16,241.77,420.16,540s232.6,540,519.53,540,519.53-241.77,519.53-540S1226.62,0,939.69,0Zm0,1027.5c-259,0-469-218.26-469-487.5s210-487.5,469-487.5,469,218.26,469,487.5S1198.72,1027.5,939.69,1027.5Z" transform="translate(-420.16)"/><path class="cls-2" d="M945.62,218.82c-179.14,0-324.37,145.22-324.37,324.36a322.84,322.84,0,0,0,47.58,169.21L609.38,880.74,784,824.46c-24.8-11,72.1,43.09,161.66,43.09,179.15,0,324.37-145.22,324.37-324.37S1124.77,218.82,945.62,218.82Z" transform="translate(-420.16)"/><path class="cls-1" d="M946.5,276.83c-150.74,0-273,122.2-273,273A271.72,271.72,0,0,0,724,707.85c4.48,6.3,3.61,5.83,0,0l-33.7,102.57L796.4,777.77s-.12-.08-.28-.21A271.59,271.59,0,0,0,946.5,822.72c150.74,0,272.94-122.2,272.94-272.94S1097.24,276.83,946.5,276.83Z" transform="translate(-420.16)"/><path class="cls-2" d="M869.47,523.14s41.87,88,122.3,104.5l38.57-43.18,79.44,36.26s5.61,21.1-4.94,42.52c0,0-14.84,25.71-61.64,37.25a181.93,181.93,0,0,1-29-2.64s-170.54-36.59-225-205.36c0,0-13.63-56.7,38.68-90.11,0,0,22-7.47,33.4,0,0,0,23.74,42.2,35.16,78.24,0,0-1.75,11-5.27,14.94C891.12,495.56,872.44,514.24,869.47,523.14Z" transform="translate(-420.16)"/></svg>